<svg enable-background="new 0 0 381.821 129.429" viewBox="0 0 381.821 129.429" xmlns="http://www.w3.org/2000/svg"><path d="m133.61 38.876h6.503v25.932h-6.503v-9.997h-10.39v9.997h-6.504v-25.932h6.504v10.173h10.39z"/><path d="m157.622 38.44c7.508 0 13.531 5.501 13.531 13.402 0 7.902-6.023 13.401-13.531 13.401s-13.489-5.499-13.489-13.401c-.001-7.9 5.98-13.402 13.489-13.402zm-7.597-4.408c0-1.921 1.527-3.449 3.361-3.449s3.405 1.528 3.405 3.449c0 1.833-1.571 3.318-3.405 3.318-1.833.001-3.361-1.484-3.361-3.318zm7.597 10.258c-3.93 0-6.811 3.013-6.811 7.553 0 4.539 2.88 7.552 6.811 7.552 3.971 0 6.809-3.013 6.809-7.552 0-4.54-2.838-7.553-6.809-7.553zm.61-10.258c0-1.921 1.528-3.449 3.361-3.449 1.878 0 3.405 1.528 3.405 3.449 0 1.833-1.527 3.318-3.405 3.318-1.833.001-3.361-1.484-3.361-3.318z"/><path d="m181.632 64.808h-6.461v-25.799c2.052-.35 5.502-.568 8.208-.568 6.636 0 11.088 2.793 11.088 8.994 0 3.71-2.095 6.328-4.671 7.683l6.94 9.691h-7.64l-5.587-8.295h-1.878v8.294zm0-13.62h1.617c2.704 0 4.627-.918 4.627-3.58 0-2.62-2.009-3.537-4.453-3.537-.524 0-1.442.044-1.791.088z"/><path d="m212.235 64.808-5.017-16.283-2.227 16.283h-6.418l3.534-25.932h7.771l5.415 17.549 5.103-17.549h7.815l3.538 25.932h-6.462l-2.27-16.283-5.021 16.283z"/><path d="m242.318 59.874-1.79 4.934h-6.855l10.083-25.932h7.815l10.086 25.932h-7.118l-1.746-4.934zm5.322-14.493-3.359 9.212h6.636z"/><path d="m281.126 54.767v-15.891h6.284v25.932h-6.154l-10.826-15.584v15.584h-6.284v-25.932h6.545z"/><path d="m309.809 54.767v-15.891h6.285v25.932h-6.154l-10.827-15.584v15.584h-6.282v-25.932h6.543z"/><path d="m133.167 94.67c-1.597.691-2.915.939-4.963.939-5.721 0-9.716-3.951-9.716-9.607 0-5.691 3.934-9.824 9.353-9.824 2.285 0 4.401.695 5.802 1.904l.371.322v-2.063l-.099-.066c-1.62-1.092-3.72-1.67-6.074-1.67-6.393 0-11.034 4.795-11.034 11.398 0 6.478 4.793 11.181 11.397 11.181 2.527 0 4.528-.458 6.488-1.478l.121-.062v-8.158h-1.646z"/><path d="m144.98 80.446c-1.982 0-3.831.572-5.496 1.706l-.098.066v14.672h1.647v-13.882c.791-.474 2.209-.955 3.947-.955.735 0 1.483.108 2.223.318l.287.081v-1.67l-.172-.04c-.743-.179-1.424-.296-2.338-.296z"/><path d="m160.992 95.316c-1.182.205-2.467.327-3.476.327-3.827 0-5.688-1.316-5.688-4.021v-10.996h-1.646v11.068c0 3.691 2.398 5.488 7.334 5.488 1.437 0 3.053-.194 4.942-.588l.179-.039v-15.93h-1.645z"/><path d="m172.559 80.336c-1.606 0-3.395.335-4.906.92l-.143.057v22.104h1.645v-6.904c1.071.461 2.618.67 3.767.67 5.082 0 8.495-3.417 8.495-8.497 0-5.308-3.228-8.35-8.858-8.35zm7.175 8.35c0 4.247-2.675 6.994-6.812 6.994-1.407 0-2.577-.237-3.767-.758v-12.608c.873-.296 2.16-.478 3.404-.478 4.559 0 7.175 2.496 7.175 6.85z"/><path d="m190.355 80.336c-1.609 0-3.396.336-4.906.92l-.143.057v22.104h1.645v-6.904c1.071.461 2.616.67 3.766.67 5.081 0 8.493-3.417 8.493-8.497 0-5.308-3.225-8.35-8.855-8.35zm7.173 8.35c0 4.247-2.672 6.994-6.811 6.994-1.407 0-2.575-.237-3.766-.758v-12.608c.876-.296 2.158-.478 3.403-.478 4.56 0 7.174 2.496 7.174 6.85z"/><path d="m216.188 88.657v-1.203c0-4.323-2.55-7.115-6.498-7.115-4.187 0-7.59 3.742-7.59 8.348 0 5.08 3.212 8.497 7.988 8.497 2.136 0 4.094-.615 5.367-1.688l.08-.068v-1.854l-.368.312c-1.489 1.249-2.96 1.763-5.079 1.763-3.815 0-6.379-2.798-6.379-6.96v-.029h12.479zm-12.331-1.429c.579-3.141 2.995-5.392 5.833-5.392 2.929 0 4.773 2.06 4.85 5.392z"/><g fill="#e4002b"><path d="m76.371 53.415c5.506 5.505 10.456 11.354 14.86 17.471l6.061-6.061-32.331-32.33-6.062 6.062c6.121 4.402 11.967 9.354 17.472 14.858z"/><path d="m84.487 77.632 5.387-5.388c-4.388-6.132-9.337-11.983-14.843-17.489-5.506-5.507-11.359-10.453-17.489-14.843l-5.387 5.388c6.17 4.329 12.054 9.249 17.567 14.763 5.514 5.515 10.435 11.398 14.765 17.569z"/><path d="m55.71 58.03c3.617 1.233 7.013 3.28 9.889 6.157 2.877 2.878 4.927 6.274 6.161 9.892v.001c2.501 3.003 4.837 6.098 7.011 9.271l4.013-4.018c-4.309-6.185-9.221-12.076-14.736-17.592-5.519-5.517-11.41-10.431-17.594-14.74l-4.016 4.017c3.174 2.171 6.268 4.509 9.272 7.012z"/><path d="m66.303 95.815c-4.067-6.349-8.873-12.36-14.422-17.911-5.549-5.547-11.561-10.355-17.91-14.419l-1.341 1.34.001.001.008.007c6.361 4.041 12.383 8.834 17.931 14.385 5.55 5.547 10.342 11.57 14.381 17.93l.008.008.001.002z"/><path d="m69.428 76.414c-1.242-3.608-3.3-6.998-6.179-9.877-2.878-2.879-6.268-4.937-9.875-6.177-3.012-2.496-6.115-4.823-9.3-6.979l-2.689 2.69c3.199 2.139 6.315 4.451 9.336 6.94l.001-.001c3.588 1.283 6.954 3.357 9.825 6.228 2.873 2.873 4.946 6.239 6.229 9.827 2.488 3.02 4.801 6.137 6.94 9.339l2.688-2.689c-2.155-3.188-4.482-6.29-6.976-9.301z"/><path d="m64.117 81.724v.002c-1.307-3.576-3.39-6.931-6.257-9.798-2.868-2.866-6.222-4.953-9.798-6.257l.001-.001c-3.032-2.481-6.163-4.779-9.378-6.898l-1.667 1.667c3.227 2.103 6.367 4.393 9.408 6.869 3.554 1.344 6.886 3.447 9.746 6.308 2.861 2.861 4.962 6.192 6.308 9.747v-.002c2.477 3.037 4.766 6.182 6.871 9.406l1.666-1.666c-2.119-3.215-4.419-6.346-6.9-9.377z"/></g></svg>