<?xml version="1.0" encoding="iso-8859-1"?>
<!-- Generator: Adobe Illustrator 24.1.0, SVG Export Plug-In . SVG Version: 6.00 Build 0)  -->
<svg version="1.1" id="Ebene_2" xmlns="http://www.w3.org/2000/svg" xmlns:xlink="http://www.w3.org/1999/xlink" x="0px" y="0px"
	 viewBox="0 0 381.821 129.429" style="enable-background:new 0 0 381.821 129.429;" xml:space="preserve">
<g>
	<g>
		<g>
			<path d="M133.61,38.876h6.503v25.932h-6.503v-9.997h-10.39v9.997h-6.504V38.876h6.504v10.173h10.39V38.876z"/>
			<path d="M157.622,38.44c7.508,0,13.531,5.501,13.531,13.402c0,7.902-6.023,13.401-13.531,13.401
				c-7.508,0-13.489-5.499-13.489-13.401C144.132,43.942,150.113,38.44,157.622,38.44z M150.025,34.032
				c0-1.921,1.527-3.449,3.361-3.449c1.834,0,3.405,1.528,3.405,3.449c0,1.833-1.571,3.318-3.405,3.318
				C151.553,37.351,150.025,35.866,150.025,34.032z M157.622,44.29c-3.93,0-6.811,3.013-6.811,7.553c0,4.539,2.88,7.552,6.811,7.552
				c3.971,0,6.809-3.013,6.809-7.552C164.431,47.303,161.593,44.29,157.622,44.29z M158.232,34.032c0-1.921,1.528-3.449,3.361-3.449
				c1.878,0,3.405,1.528,3.405,3.449c0,1.833-1.527,3.318-3.405,3.318C159.76,37.351,158.232,35.866,158.232,34.032z"/>
			<path d="M181.632,64.808h-6.461V39.009c2.052-0.35,5.502-0.568,8.208-0.568c6.636,0,11.088,2.793,11.088,8.994
				c0,3.71-2.095,6.328-4.671,7.683l6.94,9.691h-7.64l-5.587-8.295h-1.878V64.808z M181.632,51.188h1.617
				c2.704,0,4.627-0.918,4.627-3.58c0-2.62-2.009-3.537-4.453-3.537c-0.524,0-1.442,0.044-1.791,0.088V51.188z"/>
			<path d="M212.235,64.808l-5.017-16.283l-2.227,16.283h-6.418l3.534-25.932h7.771l5.415,17.549l5.103-17.549h7.815l3.538,25.932
				h-6.462l-2.27-16.283l-5.021,16.283H212.235z"/>
			<path d="M242.318,59.874l-1.79,4.934h-6.855l10.083-25.932h7.815l10.086,25.932h-7.118l-1.746-4.934H242.318z M247.64,45.381
				l-3.359,9.212h6.636L247.64,45.381z"/>
			<path d="M281.126,54.767V38.876h6.284v25.932h-6.154L270.43,49.224v15.584h-6.284V38.876h6.545L281.126,54.767z"/>
			<path d="M309.809,54.767V38.876h6.285v25.932h-6.154l-10.827-15.584v15.584h-6.282V38.876h6.543L309.809,54.767z"/>
		</g>
		<g>
			<path d="M133.167,94.67c-1.597,0.691-2.915,0.939-4.963,0.939c-5.721,0-9.716-3.951-9.716-9.607c0-5.691,3.934-9.824,9.353-9.824
				c2.285,0,4.401,0.695,5.802,1.904l0.371,0.322v-2.063l-0.099-0.066c-1.62-1.092-3.72-1.67-6.074-1.67
				c-6.393,0-11.034,4.795-11.034,11.398c0,6.478,4.793,11.181,11.397,11.181c2.527,0,4.528-0.458,6.488-1.478l0.121-0.062v-8.158
				h-1.646V94.67z"/>
			<path d="M144.98,80.446c-1.982,0-3.831,0.572-5.496,1.706l-0.098,0.066V96.89h1.647V83.008c0.791-0.474,2.209-0.955,3.947-0.955
				c0.735,0,1.483,0.108,2.223,0.318l0.287,0.081v-1.67l-0.172-0.04C146.575,80.563,145.894,80.446,144.98,80.446z"/>
			<path d="M160.992,95.316c-1.182,0.205-2.467,0.327-3.476,0.327c-3.827,0-5.688-1.316-5.688-4.021V80.626h-1.646v11.068
				c0,3.691,2.398,5.488,7.334,5.488c1.437,0,3.053-0.194,4.942-0.588l0.179-0.039v-15.93h-1.645V95.316z"/>
			<path d="M172.559,80.336c-1.606,0-3.395,0.335-4.906,0.92l-0.143,0.057v22.104h1.645v-6.904c1.071,0.461,2.618,0.67,3.767,0.67
				c5.082,0,8.495-3.417,8.495-8.497C181.417,83.378,178.189,80.336,172.559,80.336z M179.734,88.686
				c0,4.247-2.675,6.994-6.812,6.994c-1.407,0-2.577-0.237-3.767-0.758V82.314c0.873-0.296,2.16-0.478,3.404-0.478
				C177.118,81.836,179.734,84.332,179.734,88.686z"/>
			<path d="M190.355,80.336c-1.609,0-3.396,0.336-4.906,0.92l-0.143,0.057v22.104h1.645v-6.904c1.071,0.461,2.616,0.67,3.766,0.67
				c5.081,0,8.493-3.417,8.493-8.497C199.21,83.378,195.985,80.336,190.355,80.336z M197.528,88.686
				c0,4.247-2.672,6.994-6.811,6.994c-1.407,0-2.575-0.237-3.766-0.758V82.314c0.876-0.296,2.158-0.478,3.403-0.478
				C194.914,81.836,197.528,84.332,197.528,88.686z"/>
			<path d="M216.188,88.657v-1.203c0-4.323-2.55-7.115-6.498-7.115c-4.187,0-7.59,3.742-7.59,8.348c0,5.08,3.212,8.497,7.988,8.497
				c2.136,0,4.094-0.615,5.367-1.688l0.08-0.068v-1.854l-0.368,0.312c-1.489,1.249-2.96,1.763-5.079,1.763
				c-3.815,0-6.379-2.798-6.379-6.96v-0.029H216.188z M203.857,87.228c0.579-3.141,2.995-5.392,5.833-5.392
				c2.929,0,4.773,2.06,4.85,5.392H203.857z"/>
		</g>
	</g>
	<g>
		<path style="fill:#E4002B;" d="M76.371,53.415c5.506,5.505,10.456,11.354,14.86,17.471l6.061-6.061L64.961,32.495l-6.062,6.062
			C65.02,42.959,70.866,47.911,76.371,53.415z"/>
		<path style="fill:#E4002B;" d="M84.487,77.632l5.387-5.388c-4.388-6.132-9.337-11.983-14.843-17.489
			c-5.506-5.507-11.359-10.453-17.489-14.843l-5.387,5.388c6.17,4.329,12.054,9.249,17.567,14.763
			C75.236,65.578,80.157,71.461,84.487,77.632z"/>
		<path style="fill:#E4002B;" d="M55.71,58.03c3.617,1.233,7.013,3.28,9.889,6.157c2.877,2.878,4.927,6.274,6.161,9.892L71.76,74.08
			c2.501,3.003,4.837,6.098,7.011,9.271l4.013-4.018c-4.309-6.185-9.221-12.076-14.736-17.592
			c-5.519-5.517-11.41-10.431-17.594-14.74l-4.016,4.017C49.612,53.189,52.706,55.527,55.71,58.03z"/>
		<path style="fill:#E4002B;" d="M66.303,95.815c-4.067-6.349-8.873-12.36-14.422-17.911c-5.549-5.547-11.561-10.355-17.91-14.419
			l-1.341,1.34l0.001,0.001l0.008,0.007C39,68.874,45.022,73.667,50.57,79.218c5.55,5.547,10.342,11.57,14.381,17.93l0.008,0.008
			l0.001,0.002L66.303,95.815z"/>
		<path style="fill:#E4002B;" d="M69.428,76.414L69.428,76.414c-1.242-3.608-3.3-6.998-6.179-9.877
			c-2.878-2.879-6.268-4.937-9.875-6.177c-3.012-2.496-6.115-4.823-9.3-6.979l-2.689,2.69c3.199,2.139,6.315,4.451,9.336,6.94
			l0.001-0.001c3.588,1.283,6.954,3.357,9.825,6.228c2.873,2.873,4.946,6.239,6.229,9.827l0,0c2.488,3.02,4.801,6.137,6.94,9.339
			l2.688-2.689C74.249,82.527,71.922,79.425,69.428,76.414z"/>
		<path style="fill:#E4002B;" d="M64.117,81.724l0,0.002c-1.307-3.576-3.39-6.931-6.257-9.798c-2.868-2.866-6.222-4.953-9.798-6.257
			l0.001-0.001c-3.032-2.481-6.163-4.779-9.378-6.898l-1.667,1.667c3.227,2.103,6.367,4.393,9.408,6.869l0,0
			c3.554,1.344,6.886,3.447,9.746,6.308c2.861,2.861,4.962,6.192,6.308,9.747l0-0.002c2.477,3.037,4.766,6.182,6.871,9.406
			l1.666-1.666C68.898,87.886,66.598,84.755,64.117,81.724z"/>
	</g>
</g>
</svg>
