<svg xmlns="http://www.w3.org/2000/svg" viewBox="0 0 331.77 98.46"><defs><style>.cls-1{fill:#3b3b3b;}.cls-2{fill:#842523;}.cls-3{fill:#393939;}</style></defs><title>logo</title><g id="Ebene_2" data-name="Ebene 2"><g id="Ebene_1-2" data-name="Ebene 1"><rect class="cls-1" x="0.11" y="26.6" width="7.16" height="52.88"/><polygon class="cls-1" points="21.07 26.6 31.74 26.6 80.16 73.05 80.16 26.6 87.32 26.6 87.32 79.48 76.66 79.48 28.23 33.03 28.23 79.48 21.07 79.48 21.07 26.6"/><path class="cls-1" d="M99.51,45.81C99.51,32.44,104,26,118.36,26h30.45c14.32,0,18.85,6.42,18.85,19.79V60.27c0,13.37-4.53,19.79-18.85,19.79H118.36c-14.32,0-18.85-6.42-18.85-19.79V45.81m61-2.7c0-9.21-5.55-11.25-12.42-11.25h-29c-6.87,0-12.42,2-12.42,11.25V63c0,9.2,5.55,11.25,12.42,11.25h29c6.87,0,12.42-2,12.42-11.25Z"/><polygon class="cls-2" points="174.81 26.6 182.85 26.6 208.49 73.05 248.81 0 256.84 0 212.87 79.48 204.1 79.48 174.81 26.6"/><rect class="cls-1" x="250.91" y="26.6" width="7.16" height="52.88"/><path class="cls-1" d="M271,62.82h6.72v3.73c0,5.18,2.78,7.67,11.69,7.67h22.2c10.37,0,13.44-2.19,13.44-9.79,0-6.64-2.63-8.32-11.54-8.32H299.92c-21.84,0-29-1.32-29-15.34,0-12.05,7.15-14.75,21.91-14.75h15.41c17.75,0,22.2,4.52,22.2,14v1.82h-6.72c-.14-8.4-1-9.93-19.79-9.93h-7.6c-13.8,0-18.69.73-18.69,9.42,0,6.28,2,8.4,13.14,8.4H312c13.94,0,19.79,4,19.79,13v3.43c0,13-10.67,14-21.26,14H290.65C280.2,80.06,271,78.23,271,66.7V62.82"/><path class="cls-3" d="M0,85.25H3.68A6.89,6.89,0,0,1,7.43,86a2.74,2.74,0,0,1,1.16,2.45,2.83,2.83,0,0,1-.65,1.91,3.13,3.13,0,0,1-1.88,1v.08c2,.34,3,1.38,3,3.12A3.34,3.34,0,0,1,7.84,97.3a5,5,0,0,1-3.3,1H0Zm1.51,5.58H4a4.12,4.12,0,0,0,2.31-.5,2,2,0,0,0,.7-1.7,1.71,1.71,0,0,0-.78-1.58,5,5,0,0,0-2.5-.49H1.51Zm0,1.28V97H4.23a4,4,0,0,0,2.38-.61,2.26,2.26,0,0,0,.79-1.91,2,2,0,0,0-.81-1.79,4.37,4.37,0,0,0-2.48-.57Z"/><path class="cls-3" d="M20,98.28H12.73v-13H20V86.6H14.25v4.19h5.4v1.34h-5.4v4.79H20Z"/><path class="cls-3" d="M27.8,98.28H26.29V86.6H22.16V85.25h9.77V86.6H27.8Z"/><path class="cls-3" d="M36.31,92.86v5.42H34.8v-13h3.57a5.62,5.62,0,0,1,3.54.92,3.3,3.3,0,0,1,1.15,2.76,3.44,3.44,0,0,1-2.62,3.49L44,98.28H42.19L39,92.86Zm0-1.3h2.08a3.55,3.55,0,0,0,2.35-.64A2.36,2.36,0,0,0,41.49,89a2.17,2.17,0,0,0-.76-1.86,4.13,4.13,0,0,0-2.45-.57h-2Z"/><path class="cls-3" d="M47,98.28v-13H48.5v13Z"/><path class="cls-3" d="M60.25,98.28H53v-13h7.26V86.6H54.5v4.19h5.4v1.34H54.5v4.79h5.75Z"/><path class="cls-3" d="M64.05,85.25h3.68a6.89,6.89,0,0,1,3.75.78,2.74,2.74,0,0,1,1.16,2.45A2.83,2.83,0,0,1,72,90.39a3.13,3.13,0,0,1-1.88,1v.08q3,.51,3,3.12a3.34,3.34,0,0,1-1.18,2.73,5,5,0,0,1-3.3,1H64.05Zm1.51,5.58h2.5a4.12,4.12,0,0,0,2.31-.5,2,2,0,0,0,.7-1.7,1.71,1.71,0,0,0-.78-1.58,5,5,0,0,0-2.5-.49H65.56Zm0,1.28V97h2.72a3.9,3.9,0,0,0,2.37-.61,2.24,2.24,0,0,0,.8-1.91,2,2,0,0,0-.81-1.79,4.37,4.37,0,0,0-2.48-.57Z"/><path class="cls-3" d="M76.78,98.28v-13H78.3V96.91H84v1.37Z"/><path class="cls-3" d="M87.17,98.28v-13h1.51v13Z"/><path class="cls-3" d="M98.74,86.42a4.27,4.27,0,0,0-3.39,1.43,5.76,5.76,0,0,0-1.24,3.92,5.88,5.88,0,0,0,1.2,4,4.26,4.26,0,0,0,3.41,1.39,11.51,11.51,0,0,0,3.11-.49V98a9.5,9.5,0,0,1-3.34.51,5.66,5.66,0,0,1-4.44-1.75,7.2,7.2,0,0,1-1.56-5,7.87,7.87,0,0,1,.75-3.53,5.38,5.38,0,0,1,2.17-2.33,6.58,6.58,0,0,1,3.35-.82,8.17,8.17,0,0,1,3.58.74l-.64,1.31A6.82,6.82,0,0,0,98.74,86.42Z"/><path class="cls-3" d="M115.48,98.28H114V92.15H107.1v6.13h-1.51v-13h1.51v5.54H114V85.25h1.52Z"/><path class="cls-3" d="M127.22,98.28H120v-13h7.26V86.6h-5.75v4.19h5.4v1.34h-5.4v4.79h5.75Z"/><path class="cls-3" d="M144.86,98.28l-1.62-4.14H138l-1.61,4.14h-1.53L140,85.2h1.27l5.13,13.08Zm-2.09-5.51-1.52-4a18.45,18.45,0,0,1-.6-1.88,18.22,18.22,0,0,1-.57,1.88l-1.53,4Z"/><path class="cls-3" d="M149.13,98.28v-13h1.51V96.91h5.75v1.37Z"/><path class="cls-3" d="M163.52,98.28H162V86.6h-4.13V85.25h9.77V86.6h-4.13Z"/><path class="cls-3" d="M177.78,98.28h-7.26v-13h7.26V86.6H172v4.19h5.4v1.34H172v4.79h5.75Z"/><path class="cls-3" d="M183.09,92.86v5.42h-1.51v-13h3.57a5.62,5.62,0,0,1,3.54.92,3.33,3.33,0,0,1,1.14,2.76,3.44,3.44,0,0,1-2.61,3.49l3.53,5.86H189l-3.15-5.42Zm0-1.3h2.08a3.55,3.55,0,0,0,2.35-.64,2.36,2.36,0,0,0,.75-1.91,2.19,2.19,0,0,0-.76-1.86,4.15,4.15,0,0,0-2.45-.57h-2Z"/><path class="cls-3" d="M201.12,94.81a3.19,3.19,0,0,1-1.25,2.68,5.35,5.35,0,0,1-3.38,1,8.45,8.45,0,0,1-3.57-.6V96.4a10,10,0,0,0,1.75.53,9.22,9.22,0,0,0,1.87.2,3.72,3.72,0,0,0,2.28-.58,1.87,1.87,0,0,0,.77-1.59,1.94,1.94,0,0,0-.28-1.11,2.47,2.47,0,0,0-.9-.8,13.86,13.86,0,0,0-1.94-.83,6.22,6.22,0,0,1-2.6-1.54,3.42,3.42,0,0,1-.78-2.33A2.89,2.89,0,0,1,194.22,86a4.68,4.68,0,0,1,3-.89,8.75,8.75,0,0,1,3.57.71l-.47,1.32a8.13,8.13,0,0,0-3.14-.68,3,3,0,0,0-1.88.52,1.7,1.7,0,0,0-.68,1.43,2.28,2.28,0,0,0,.25,1.11,2.39,2.39,0,0,0,.84.79,10.47,10.47,0,0,0,1.82.8,7.29,7.29,0,0,1,2.82,1.57A3.1,3.1,0,0,1,201.12,94.81Z"/><path class="cls-3" d="M212.13,85.25h1.63l-4.69,13h-1.5l-4.67-13h1.61l3,8.43a24,24,0,0,1,.82,2.83,21.45,21.45,0,0,1,.84-2.88Z"/><path class="cls-3" d="M223.73,98.28h-7.26v-13h7.26V86.6H218v4.19h5.4v1.34H218v4.79h5.75Z"/><path class="cls-3" d="M229,92.86v5.42h-1.51v-13h3.57a5.62,5.62,0,0,1,3.54.92,3.33,3.33,0,0,1,1.14,2.76,3.44,3.44,0,0,1-2.62,3.49l3.54,5.86h-1.79l-3.15-5.42Zm0-1.3h2.08a3.57,3.57,0,0,0,2.35-.64,2.36,2.36,0,0,0,.75-1.91,2.17,2.17,0,0,0-.77-1.86,4.1,4.1,0,0,0-2.44-.57h-2Z"/><path class="cls-3" d="M247.07,94.81a3.19,3.19,0,0,1-1.25,2.68,5.36,5.36,0,0,1-3.39,1,8.43,8.43,0,0,1-3.56-.6V96.4a9.69,9.69,0,0,0,1.75.53,9.22,9.22,0,0,0,1.87.2,3.72,3.72,0,0,0,2.28-.58,1.87,1.87,0,0,0,.76-1.59,2,2,0,0,0-.27-1.11,2.43,2.43,0,0,0-.91-.8,13.14,13.14,0,0,0-1.93-.83,6.15,6.15,0,0,1-2.6-1.54,3.42,3.42,0,0,1-.78-2.33A2.89,2.89,0,0,1,240.17,86a4.65,4.65,0,0,1,3-.89,8.77,8.77,0,0,1,3.58.71l-.48,1.32a8.08,8.08,0,0,0-3.13-.68,3,3,0,0,0-1.88.52,1.7,1.7,0,0,0-.68,1.43,2.17,2.17,0,0,0,.25,1.11,2.39,2.39,0,0,0,.84.79,10.66,10.66,0,0,0,1.81.8,7.14,7.14,0,0,1,2.82,1.57A3.06,3.06,0,0,1,247.07,94.81Z"/><path class="cls-3" d="M262,91.75a7.22,7.22,0,0,1-1.58,4.92,6.39,6.39,0,0,1-8.84,0,7.26,7.26,0,0,1-1.57-5,7.17,7.17,0,0,1,1.57-4.93A5.67,5.67,0,0,1,256,85.05a5.53,5.53,0,0,1,4.38,1.78A7.18,7.18,0,0,1,262,91.75Zm-10.38,0a6.18,6.18,0,0,0,1.12,4,4.61,4.61,0,0,0,6.55,0,6.32,6.32,0,0,0,1.1-4,6.2,6.2,0,0,0-1.1-4A4,4,0,0,0,256,86.4a4,4,0,0,0-3.3,1.37A6.13,6.13,0,0,0,251.57,91.75Z"/><path class="cls-3" d="M267.28,92.86v5.42h-1.52v-13h3.58a5.66,5.66,0,0,1,3.54.92A3.33,3.33,0,0,1,274,88.93a3.44,3.44,0,0,1-2.62,3.49l3.54,5.86h-1.79L270,92.86Zm0-1.3h2.07a3.58,3.58,0,0,0,2.36-.64,2.39,2.39,0,0,0,.74-1.91,2.17,2.17,0,0,0-.76-1.86,4.12,4.12,0,0,0-2.44-.57h-2Z"/><path class="cls-3" d="M283.68,91.45h4.43v6.34a15.26,15.26,0,0,1-2.1.5,16.46,16.46,0,0,1-2.48.17,6,6,0,0,1-4.61-1.76,7,7,0,0,1-1.64-4.93,7.48,7.48,0,0,1,.81-3.56,5.58,5.58,0,0,1,2.35-2.34,7.57,7.57,0,0,1,3.59-.8,9.8,9.8,0,0,1,3.88.76l-.58,1.34a8.69,8.69,0,0,0-3.4-.75,4.84,4.84,0,0,0-3.71,1.42,5.49,5.49,0,0,0-1.34,3.93,5.63,5.63,0,0,0,1.29,4A5,5,0,0,0,284,97.13a11.23,11.23,0,0,0,2.65-.31v-4h-2.92Z"/><path class="cls-3" d="M302,85.25v8.43a4.57,4.57,0,0,1-1.34,3.5,5.17,5.17,0,0,1-3.7,1.28,4.92,4.92,0,0,1-3.64-1.29A4.73,4.73,0,0,1,292,93.65v-8.4h1.51v8.5a3.39,3.39,0,0,0,.89,2.51,3.6,3.6,0,0,0,2.62.87,3.44,3.44,0,0,0,2.54-.88,3.38,3.38,0,0,0,.89-2.52V85.25Z"/><path class="cls-3" d="M316.52,98.28h-1.73l-7.12-10.93h-.07c.1,1.28.14,2.46.14,3.52v7.41h-1.4v-13h1.71l7.11,10.89h.07c0-.16,0-.68-.08-1.55s-.06-1.49,0-1.86V85.25h1.42Z"/><path class="cls-3" d="M326.74,91.45h4.43v6.34a15.06,15.06,0,0,1-2.11.5,16.23,16.23,0,0,1-2.47.17A6,6,0,0,1,322,96.7a7,7,0,0,1-1.65-4.93,7.48,7.48,0,0,1,.82-3.56,5.53,5.53,0,0,1,2.35-2.34,7.55,7.55,0,0,1,3.59-.8,9.8,9.8,0,0,1,3.88.76l-.59,1.34a8.61,8.61,0,0,0-3.39-.75,4.86,4.86,0,0,0-3.72,1.42,5.49,5.49,0,0,0-1.33,3.93,5.63,5.63,0,0,0,1.29,4A5,5,0,0,0,327,97.13a11.09,11.09,0,0,0,2.64-.31v-4h-2.91Z"/></g></g></svg>